%TF.GenerationSoftware,KiCad,Pcbnew,9.0.7*%
%TF.CreationDate,2026-06-29T23:09:24+05:30*%
%TF.ProjectId,MCU Datalogger,4d435520-4461-4746-916c-6f676765722e,1*%
%TF.SameCoordinates,Original*%
%TF.FileFunction,Legend,Bot*%
%TF.FilePolarity,Positive*%
%FSLAX46Y46*%
G04 Gerber Fmt 4.6, Leading zero omitted, Abs format (unit mm)*
G04 Created by KiCad (PCBNEW 9.0.7) date 2026-06-29 23:09:24*
%MOMM*%
%LPD*%
G01*
G04 APERTURE LIST*
%ADD10C,0.300000*%
%ADD11C,0.200000*%
G04 APERTURE END LIST*
D10*
X105998489Y-96285912D02*
X105998489Y-94785912D01*
X105998489Y-94785912D02*
X105641346Y-94785912D01*
X105641346Y-94785912D02*
X105427060Y-94857341D01*
X105427060Y-94857341D02*
X105284203Y-95000198D01*
X105284203Y-95000198D02*
X105212774Y-95143055D01*
X105212774Y-95143055D02*
X105141346Y-95428769D01*
X105141346Y-95428769D02*
X105141346Y-95643055D01*
X105141346Y-95643055D02*
X105212774Y-95928769D01*
X105212774Y-95928769D02*
X105284203Y-96071626D01*
X105284203Y-96071626D02*
X105427060Y-96214484D01*
X105427060Y-96214484D02*
X105641346Y-96285912D01*
X105641346Y-96285912D02*
X105998489Y-96285912D01*
X104569917Y-95857341D02*
X103855632Y-95857341D01*
X104712774Y-96285912D02*
X104212774Y-94785912D01*
X104212774Y-94785912D02*
X103712774Y-96285912D01*
X103427060Y-94785912D02*
X102569918Y-94785912D01*
X102998489Y-96285912D02*
X102998489Y-94785912D01*
X102141346Y-95857341D02*
X101427061Y-95857341D01*
X102284203Y-96285912D02*
X101784203Y-94785912D01*
X101784203Y-94785912D02*
X101284203Y-96285912D01*
X98927061Y-96285912D02*
X99641347Y-96285912D01*
X99641347Y-96285912D02*
X99641347Y-94785912D01*
X98141346Y-94785912D02*
X97855632Y-94785912D01*
X97855632Y-94785912D02*
X97712775Y-94857341D01*
X97712775Y-94857341D02*
X97569918Y-95000198D01*
X97569918Y-95000198D02*
X97498489Y-95285912D01*
X97498489Y-95285912D02*
X97498489Y-95785912D01*
X97498489Y-95785912D02*
X97569918Y-96071626D01*
X97569918Y-96071626D02*
X97712775Y-96214484D01*
X97712775Y-96214484D02*
X97855632Y-96285912D01*
X97855632Y-96285912D02*
X98141346Y-96285912D01*
X98141346Y-96285912D02*
X98284204Y-96214484D01*
X98284204Y-96214484D02*
X98427061Y-96071626D01*
X98427061Y-96071626D02*
X98498489Y-95785912D01*
X98498489Y-95785912D02*
X98498489Y-95285912D01*
X98498489Y-95285912D02*
X98427061Y-95000198D01*
X98427061Y-95000198D02*
X98284204Y-94857341D01*
X98284204Y-94857341D02*
X98141346Y-94785912D01*
X96069917Y-94857341D02*
X96212775Y-94785912D01*
X96212775Y-94785912D02*
X96427060Y-94785912D01*
X96427060Y-94785912D02*
X96641346Y-94857341D01*
X96641346Y-94857341D02*
X96784203Y-95000198D01*
X96784203Y-95000198D02*
X96855632Y-95143055D01*
X96855632Y-95143055D02*
X96927060Y-95428769D01*
X96927060Y-95428769D02*
X96927060Y-95643055D01*
X96927060Y-95643055D02*
X96855632Y-95928769D01*
X96855632Y-95928769D02*
X96784203Y-96071626D01*
X96784203Y-96071626D02*
X96641346Y-96214484D01*
X96641346Y-96214484D02*
X96427060Y-96285912D01*
X96427060Y-96285912D02*
X96284203Y-96285912D01*
X96284203Y-96285912D02*
X96069917Y-96214484D01*
X96069917Y-96214484D02*
X95998489Y-96143055D01*
X95998489Y-96143055D02*
X95998489Y-95643055D01*
X95998489Y-95643055D02*
X96284203Y-95643055D01*
X94569917Y-94857341D02*
X94712775Y-94785912D01*
X94712775Y-94785912D02*
X94927060Y-94785912D01*
X94927060Y-94785912D02*
X95141346Y-94857341D01*
X95141346Y-94857341D02*
X95284203Y-95000198D01*
X95284203Y-95000198D02*
X95355632Y-95143055D01*
X95355632Y-95143055D02*
X95427060Y-95428769D01*
X95427060Y-95428769D02*
X95427060Y-95643055D01*
X95427060Y-95643055D02*
X95355632Y-95928769D01*
X95355632Y-95928769D02*
X95284203Y-96071626D01*
X95284203Y-96071626D02*
X95141346Y-96214484D01*
X95141346Y-96214484D02*
X94927060Y-96285912D01*
X94927060Y-96285912D02*
X94784203Y-96285912D01*
X94784203Y-96285912D02*
X94569917Y-96214484D01*
X94569917Y-96214484D02*
X94498489Y-96143055D01*
X94498489Y-96143055D02*
X94498489Y-95643055D01*
X94498489Y-95643055D02*
X94784203Y-95643055D01*
X93855632Y-95500198D02*
X93355632Y-95500198D01*
X93141346Y-96285912D02*
X93855632Y-96285912D01*
X93855632Y-96285912D02*
X93855632Y-94785912D01*
X93855632Y-94785912D02*
X93141346Y-94785912D01*
X91641346Y-96285912D02*
X92141346Y-95571626D01*
X92498489Y-96285912D02*
X92498489Y-94785912D01*
X92498489Y-94785912D02*
X91927060Y-94785912D01*
X91927060Y-94785912D02*
X91784203Y-94857341D01*
X91784203Y-94857341D02*
X91712774Y-94928769D01*
X91712774Y-94928769D02*
X91641346Y-95071626D01*
X91641346Y-95071626D02*
X91641346Y-95285912D01*
X91641346Y-95285912D02*
X91712774Y-95428769D01*
X91712774Y-95428769D02*
X91784203Y-95500198D01*
X91784203Y-95500198D02*
X91927060Y-95571626D01*
X91927060Y-95571626D02*
X92498489Y-95571626D01*
X89998489Y-94785912D02*
X89641346Y-96285912D01*
X89641346Y-96285912D02*
X89355632Y-95214484D01*
X89355632Y-95214484D02*
X89069917Y-96285912D01*
X89069917Y-96285912D02*
X88712775Y-94785912D01*
X88141346Y-96285912D02*
X88141346Y-94785912D01*
X87641345Y-94785912D02*
X86784203Y-94785912D01*
X87212774Y-96285912D02*
X87212774Y-94785912D01*
X86284203Y-96285912D02*
X86284203Y-94785912D01*
X86284203Y-95500198D02*
X85427060Y-95500198D01*
X85427060Y-96285912D02*
X85427060Y-94785912D01*
X106212774Y-97200828D02*
X105355632Y-97200828D01*
X105784203Y-98700828D02*
X105784203Y-97200828D01*
X104855632Y-98700828D02*
X104855632Y-97200828D01*
X104855632Y-97915114D02*
X103998489Y-97915114D01*
X103998489Y-98700828D02*
X103998489Y-97200828D01*
X103284203Y-97915114D02*
X102784203Y-97915114D01*
X102569917Y-98700828D02*
X103284203Y-98700828D01*
X103284203Y-98700828D02*
X103284203Y-97200828D01*
X103284203Y-97200828D02*
X102569917Y-97200828D01*
X100855631Y-98272257D02*
X100141346Y-98272257D01*
X100998488Y-98700828D02*
X100498488Y-97200828D01*
X100498488Y-97200828D02*
X99998488Y-98700828D01*
X99712774Y-97200828D02*
X98855632Y-97200828D01*
X99284203Y-98700828D02*
X99284203Y-97200828D01*
X98355632Y-98700828D02*
X98355632Y-97200828D01*
X98355632Y-97200828D02*
X97855632Y-98272257D01*
X97855632Y-98272257D02*
X97355632Y-97200828D01*
X97355632Y-97200828D02*
X97355632Y-98700828D01*
X96641346Y-97915114D02*
X96141346Y-97915114D01*
X95927060Y-98700828D02*
X96641346Y-98700828D01*
X96641346Y-98700828D02*
X96641346Y-97200828D01*
X96641346Y-97200828D02*
X95927060Y-97200828D01*
X94498488Y-97272257D02*
X94641346Y-97200828D01*
X94641346Y-97200828D02*
X94855631Y-97200828D01*
X94855631Y-97200828D02*
X95069917Y-97272257D01*
X95069917Y-97272257D02*
X95212774Y-97415114D01*
X95212774Y-97415114D02*
X95284203Y-97557971D01*
X95284203Y-97557971D02*
X95355631Y-97843685D01*
X95355631Y-97843685D02*
X95355631Y-98057971D01*
X95355631Y-98057971D02*
X95284203Y-98343685D01*
X95284203Y-98343685D02*
X95212774Y-98486542D01*
X95212774Y-98486542D02*
X95069917Y-98629400D01*
X95069917Y-98629400D02*
X94855631Y-98700828D01*
X94855631Y-98700828D02*
X94712774Y-98700828D01*
X94712774Y-98700828D02*
X94498488Y-98629400D01*
X94498488Y-98629400D02*
X94427060Y-98557971D01*
X94427060Y-98557971D02*
X94427060Y-98057971D01*
X94427060Y-98057971D02*
X94712774Y-98057971D01*
X93855631Y-98272257D02*
X93141346Y-98272257D01*
X93998488Y-98700828D02*
X93498488Y-97200828D01*
X93498488Y-97200828D02*
X92998488Y-98700828D01*
X92641346Y-97200828D02*
X91712774Y-97200828D01*
X91712774Y-97200828D02*
X92212774Y-97772257D01*
X92212774Y-97772257D02*
X91998489Y-97772257D01*
X91998489Y-97772257D02*
X91855632Y-97843685D01*
X91855632Y-97843685D02*
X91784203Y-97915114D01*
X91784203Y-97915114D02*
X91712774Y-98057971D01*
X91712774Y-98057971D02*
X91712774Y-98415114D01*
X91712774Y-98415114D02*
X91784203Y-98557971D01*
X91784203Y-98557971D02*
X91855632Y-98629400D01*
X91855632Y-98629400D02*
X91998489Y-98700828D01*
X91998489Y-98700828D02*
X92427060Y-98700828D01*
X92427060Y-98700828D02*
X92569917Y-98629400D01*
X92569917Y-98629400D02*
X92641346Y-98557971D01*
X91141346Y-97343685D02*
X91069918Y-97272257D01*
X91069918Y-97272257D02*
X90927061Y-97200828D01*
X90927061Y-97200828D02*
X90569918Y-97200828D01*
X90569918Y-97200828D02*
X90427061Y-97272257D01*
X90427061Y-97272257D02*
X90355632Y-97343685D01*
X90355632Y-97343685D02*
X90284203Y-97486542D01*
X90284203Y-97486542D02*
X90284203Y-97629400D01*
X90284203Y-97629400D02*
X90355632Y-97843685D01*
X90355632Y-97843685D02*
X91212775Y-98700828D01*
X91212775Y-98700828D02*
X90284203Y-98700828D01*
X89427061Y-97843685D02*
X89569918Y-97772257D01*
X89569918Y-97772257D02*
X89641347Y-97700828D01*
X89641347Y-97700828D02*
X89712775Y-97557971D01*
X89712775Y-97557971D02*
X89712775Y-97486542D01*
X89712775Y-97486542D02*
X89641347Y-97343685D01*
X89641347Y-97343685D02*
X89569918Y-97272257D01*
X89569918Y-97272257D02*
X89427061Y-97200828D01*
X89427061Y-97200828D02*
X89141347Y-97200828D01*
X89141347Y-97200828D02*
X88998490Y-97272257D01*
X88998490Y-97272257D02*
X88927061Y-97343685D01*
X88927061Y-97343685D02*
X88855632Y-97486542D01*
X88855632Y-97486542D02*
X88855632Y-97557971D01*
X88855632Y-97557971D02*
X88927061Y-97700828D01*
X88927061Y-97700828D02*
X88998490Y-97772257D01*
X88998490Y-97772257D02*
X89141347Y-97843685D01*
X89141347Y-97843685D02*
X89427061Y-97843685D01*
X89427061Y-97843685D02*
X89569918Y-97915114D01*
X89569918Y-97915114D02*
X89641347Y-97986542D01*
X89641347Y-97986542D02*
X89712775Y-98129400D01*
X89712775Y-98129400D02*
X89712775Y-98415114D01*
X89712775Y-98415114D02*
X89641347Y-98557971D01*
X89641347Y-98557971D02*
X89569918Y-98629400D01*
X89569918Y-98629400D02*
X89427061Y-98700828D01*
X89427061Y-98700828D02*
X89141347Y-98700828D01*
X89141347Y-98700828D02*
X88998490Y-98629400D01*
X88998490Y-98629400D02*
X88927061Y-98557971D01*
X88927061Y-98557971D02*
X88855632Y-98415114D01*
X88855632Y-98415114D02*
X88855632Y-98129400D01*
X88855632Y-98129400D02*
X88927061Y-97986542D01*
X88927061Y-97986542D02*
X88998490Y-97915114D01*
X88998490Y-97915114D02*
X89141347Y-97843685D01*
X88212776Y-98700828D02*
X88212776Y-97200828D01*
X88212776Y-97200828D02*
X87641347Y-97200828D01*
X87641347Y-97200828D02*
X87498490Y-97272257D01*
X87498490Y-97272257D02*
X87427061Y-97343685D01*
X87427061Y-97343685D02*
X87355633Y-97486542D01*
X87355633Y-97486542D02*
X87355633Y-97700828D01*
X87355633Y-97700828D02*
X87427061Y-97843685D01*
X87427061Y-97843685D02*
X87498490Y-97915114D01*
X87498490Y-97915114D02*
X87641347Y-97986542D01*
X87641347Y-97986542D02*
X88212776Y-97986542D01*
X106045489Y-100899568D02*
X104902632Y-100899568D01*
X103116917Y-100113853D02*
X103045489Y-100042425D01*
X103045489Y-100042425D02*
X102902632Y-99970996D01*
X102902632Y-99970996D02*
X102545489Y-99970996D01*
X102545489Y-99970996D02*
X102402632Y-100042425D01*
X102402632Y-100042425D02*
X102331203Y-100113853D01*
X102331203Y-100113853D02*
X102259774Y-100256710D01*
X102259774Y-100256710D02*
X102259774Y-100399568D01*
X102259774Y-100399568D02*
X102331203Y-100613853D01*
X102331203Y-100613853D02*
X103188346Y-101470996D01*
X103188346Y-101470996D02*
X102259774Y-101470996D01*
X101616918Y-101470996D02*
X101616918Y-99970996D01*
X101616918Y-99970996D02*
X101116918Y-101042425D01*
X101116918Y-101042425D02*
X100616918Y-99970996D01*
X100616918Y-99970996D02*
X100616918Y-101470996D01*
X99902632Y-101470996D02*
X99902632Y-99970996D01*
X99902632Y-100542425D02*
X99759775Y-100470996D01*
X99759775Y-100470996D02*
X99474060Y-100470996D01*
X99474060Y-100470996D02*
X99331203Y-100542425D01*
X99331203Y-100542425D02*
X99259775Y-100613853D01*
X99259775Y-100613853D02*
X99188346Y-100756710D01*
X99188346Y-100756710D02*
X99188346Y-101185282D01*
X99188346Y-101185282D02*
X99259775Y-101328139D01*
X99259775Y-101328139D02*
X99331203Y-101399568D01*
X99331203Y-101399568D02*
X99474060Y-101470996D01*
X99474060Y-101470996D02*
X99759775Y-101470996D01*
X99759775Y-101470996D02*
X99902632Y-101399568D01*
X98545489Y-101470996D02*
X98545489Y-100470996D01*
X98545489Y-99970996D02*
X98616917Y-100042425D01*
X98616917Y-100042425D02*
X98545489Y-100113853D01*
X98545489Y-100113853D02*
X98474060Y-100042425D01*
X98474060Y-100042425D02*
X98545489Y-99970996D01*
X98545489Y-99970996D02*
X98545489Y-100113853D01*
X98045488Y-100470996D02*
X97474060Y-100470996D01*
X97831203Y-99970996D02*
X97831203Y-101256710D01*
X97831203Y-101256710D02*
X97759774Y-101399568D01*
X97759774Y-101399568D02*
X97616917Y-101470996D01*
X97616917Y-101470996D02*
X97474060Y-101470996D01*
X95831203Y-100685282D02*
X95331203Y-100685282D01*
X95116917Y-101470996D02*
X95831203Y-101470996D01*
X95831203Y-101470996D02*
X95831203Y-99970996D01*
X95831203Y-99970996D02*
X95116917Y-99970996D01*
X94474060Y-100685282D02*
X93974060Y-100685282D01*
X93759774Y-101470996D02*
X94474060Y-101470996D01*
X94474060Y-101470996D02*
X94474060Y-99970996D01*
X94474060Y-99970996D02*
X93759774Y-99970996D01*
X93116917Y-101470996D02*
X93116917Y-99970996D01*
X93116917Y-99970996D02*
X92545488Y-99970996D01*
X92545488Y-99970996D02*
X92402631Y-100042425D01*
X92402631Y-100042425D02*
X92331202Y-100113853D01*
X92331202Y-100113853D02*
X92259774Y-100256710D01*
X92259774Y-100256710D02*
X92259774Y-100470996D01*
X92259774Y-100470996D02*
X92331202Y-100613853D01*
X92331202Y-100613853D02*
X92402631Y-100685282D01*
X92402631Y-100685282D02*
X92545488Y-100756710D01*
X92545488Y-100756710D02*
X93116917Y-100756710D01*
X90759774Y-101470996D02*
X91259774Y-100756710D01*
X91616917Y-101470996D02*
X91616917Y-99970996D01*
X91616917Y-99970996D02*
X91045488Y-99970996D01*
X91045488Y-99970996D02*
X90902631Y-100042425D01*
X90902631Y-100042425D02*
X90831202Y-100113853D01*
X90831202Y-100113853D02*
X90759774Y-100256710D01*
X90759774Y-100256710D02*
X90759774Y-100470996D01*
X90759774Y-100470996D02*
X90831202Y-100613853D01*
X90831202Y-100613853D02*
X90902631Y-100685282D01*
X90902631Y-100685282D02*
X91045488Y-100756710D01*
X91045488Y-100756710D02*
X91616917Y-100756710D01*
X89831202Y-99970996D02*
X89545488Y-99970996D01*
X89545488Y-99970996D02*
X89402631Y-100042425D01*
X89402631Y-100042425D02*
X89259774Y-100185282D01*
X89259774Y-100185282D02*
X89188345Y-100470996D01*
X89188345Y-100470996D02*
X89188345Y-100970996D01*
X89188345Y-100970996D02*
X89259774Y-101256710D01*
X89259774Y-101256710D02*
X89402631Y-101399568D01*
X89402631Y-101399568D02*
X89545488Y-101470996D01*
X89545488Y-101470996D02*
X89831202Y-101470996D01*
X89831202Y-101470996D02*
X89974060Y-101399568D01*
X89974060Y-101399568D02*
X90116917Y-101256710D01*
X90116917Y-101256710D02*
X90188345Y-100970996D01*
X90188345Y-100970996D02*
X90188345Y-100470996D01*
X90188345Y-100470996D02*
X90116917Y-100185282D01*
X90116917Y-100185282D02*
X89974060Y-100042425D01*
X89974060Y-100042425D02*
X89831202Y-99970996D01*
X88545488Y-101470996D02*
X88545488Y-99970996D01*
X88545488Y-99970996D02*
X88045488Y-101042425D01*
X88045488Y-101042425D02*
X87545488Y-99970996D01*
X87545488Y-99970996D02*
X87545488Y-101470996D01*
X106045489Y-103314484D02*
X104902632Y-103314484D01*
X102188346Y-103885912D02*
X102688346Y-103171626D01*
X103045489Y-103885912D02*
X103045489Y-102385912D01*
X103045489Y-102385912D02*
X102474060Y-102385912D01*
X102474060Y-102385912D02*
X102331203Y-102457341D01*
X102331203Y-102457341D02*
X102259774Y-102528769D01*
X102259774Y-102528769D02*
X102188346Y-102671626D01*
X102188346Y-102671626D02*
X102188346Y-102885912D01*
X102188346Y-102885912D02*
X102259774Y-103028769D01*
X102259774Y-103028769D02*
X102331203Y-103100198D01*
X102331203Y-103100198D02*
X102474060Y-103171626D01*
X102474060Y-103171626D02*
X103045489Y-103171626D01*
X101759774Y-102385912D02*
X100902632Y-102385912D01*
X101331203Y-103885912D02*
X101331203Y-102385912D01*
X99545489Y-103743055D02*
X99616917Y-103814484D01*
X99616917Y-103814484D02*
X99831203Y-103885912D01*
X99831203Y-103885912D02*
X99974060Y-103885912D01*
X99974060Y-103885912D02*
X100188346Y-103814484D01*
X100188346Y-103814484D02*
X100331203Y-103671626D01*
X100331203Y-103671626D02*
X100402632Y-103528769D01*
X100402632Y-103528769D02*
X100474060Y-103243055D01*
X100474060Y-103243055D02*
X100474060Y-103028769D01*
X100474060Y-103028769D02*
X100402632Y-102743055D01*
X100402632Y-102743055D02*
X100331203Y-102600198D01*
X100331203Y-102600198D02*
X100188346Y-102457341D01*
X100188346Y-102457341D02*
X99974060Y-102385912D01*
X99974060Y-102385912D02*
X99831203Y-102385912D01*
X99831203Y-102385912D02*
X99616917Y-102457341D01*
X99616917Y-102457341D02*
X99545489Y-102528769D01*
X106045489Y-105729400D02*
X104902632Y-105729400D01*
X103045489Y-106300828D02*
X103045489Y-104800828D01*
X102402631Y-104943685D02*
X102331203Y-104872257D01*
X102331203Y-104872257D02*
X102188346Y-104800828D01*
X102188346Y-104800828D02*
X101831203Y-104800828D01*
X101831203Y-104800828D02*
X101688346Y-104872257D01*
X101688346Y-104872257D02*
X101616917Y-104943685D01*
X101616917Y-104943685D02*
X101545488Y-105086542D01*
X101545488Y-105086542D02*
X101545488Y-105229400D01*
X101545488Y-105229400D02*
X101616917Y-105443685D01*
X101616917Y-105443685D02*
X102474060Y-106300828D01*
X102474060Y-106300828D02*
X101545488Y-106300828D01*
X100045489Y-106157971D02*
X100116917Y-106229400D01*
X100116917Y-106229400D02*
X100331203Y-106300828D01*
X100331203Y-106300828D02*
X100474060Y-106300828D01*
X100474060Y-106300828D02*
X100688346Y-106229400D01*
X100688346Y-106229400D02*
X100831203Y-106086542D01*
X100831203Y-106086542D02*
X100902632Y-105943685D01*
X100902632Y-105943685D02*
X100974060Y-105657971D01*
X100974060Y-105657971D02*
X100974060Y-105443685D01*
X100974060Y-105443685D02*
X100902632Y-105157971D01*
X100902632Y-105157971D02*
X100831203Y-105015114D01*
X100831203Y-105015114D02*
X100688346Y-104872257D01*
X100688346Y-104872257D02*
X100474060Y-104800828D01*
X100474060Y-104800828D02*
X100331203Y-104800828D01*
X100331203Y-104800828D02*
X100116917Y-104872257D01*
X100116917Y-104872257D02*
X100045489Y-104943685D01*
X99331203Y-106229400D02*
X99331203Y-106300828D01*
X99331203Y-106300828D02*
X99402632Y-106443685D01*
X99402632Y-106443685D02*
X99474060Y-106515114D01*
X97616917Y-106229400D02*
X97402632Y-106300828D01*
X97402632Y-106300828D02*
X97045489Y-106300828D01*
X97045489Y-106300828D02*
X96902632Y-106229400D01*
X96902632Y-106229400D02*
X96831203Y-106157971D01*
X96831203Y-106157971D02*
X96759774Y-106015114D01*
X96759774Y-106015114D02*
X96759774Y-105872257D01*
X96759774Y-105872257D02*
X96831203Y-105729400D01*
X96831203Y-105729400D02*
X96902632Y-105657971D01*
X96902632Y-105657971D02*
X97045489Y-105586542D01*
X97045489Y-105586542D02*
X97331203Y-105515114D01*
X97331203Y-105515114D02*
X97474060Y-105443685D01*
X97474060Y-105443685D02*
X97545489Y-105372257D01*
X97545489Y-105372257D02*
X97616917Y-105229400D01*
X97616917Y-105229400D02*
X97616917Y-105086542D01*
X97616917Y-105086542D02*
X97545489Y-104943685D01*
X97545489Y-104943685D02*
X97474060Y-104872257D01*
X97474060Y-104872257D02*
X97331203Y-104800828D01*
X97331203Y-104800828D02*
X96974060Y-104800828D01*
X96974060Y-104800828D02*
X96759774Y-104872257D01*
X96116918Y-106300828D02*
X96116918Y-104800828D01*
X96116918Y-104800828D02*
X95545489Y-104800828D01*
X95545489Y-104800828D02*
X95402632Y-104872257D01*
X95402632Y-104872257D02*
X95331203Y-104943685D01*
X95331203Y-104943685D02*
X95259775Y-105086542D01*
X95259775Y-105086542D02*
X95259775Y-105300828D01*
X95259775Y-105300828D02*
X95331203Y-105443685D01*
X95331203Y-105443685D02*
X95402632Y-105515114D01*
X95402632Y-105515114D02*
X95545489Y-105586542D01*
X95545489Y-105586542D02*
X96116918Y-105586542D01*
X94616918Y-106300828D02*
X94616918Y-104800828D01*
X93831203Y-106229400D02*
X93831203Y-106300828D01*
X93831203Y-106300828D02*
X93902632Y-106443685D01*
X93902632Y-106443685D02*
X93974060Y-106515114D01*
X91259774Y-104872257D02*
X91402632Y-104800828D01*
X91402632Y-104800828D02*
X91616917Y-104800828D01*
X91616917Y-104800828D02*
X91831203Y-104872257D01*
X91831203Y-104872257D02*
X91974060Y-105015114D01*
X91974060Y-105015114D02*
X92045489Y-105157971D01*
X92045489Y-105157971D02*
X92116917Y-105443685D01*
X92116917Y-105443685D02*
X92116917Y-105657971D01*
X92116917Y-105657971D02*
X92045489Y-105943685D01*
X92045489Y-105943685D02*
X91974060Y-106086542D01*
X91974060Y-106086542D02*
X91831203Y-106229400D01*
X91831203Y-106229400D02*
X91616917Y-106300828D01*
X91616917Y-106300828D02*
X91474060Y-106300828D01*
X91474060Y-106300828D02*
X91259774Y-106229400D01*
X91259774Y-106229400D02*
X91188346Y-106157971D01*
X91188346Y-106157971D02*
X91188346Y-105657971D01*
X91188346Y-105657971D02*
X91474060Y-105657971D01*
X90545489Y-106300828D02*
X90545489Y-104800828D01*
X90545489Y-104800828D02*
X89974060Y-104800828D01*
X89974060Y-104800828D02*
X89831203Y-104872257D01*
X89831203Y-104872257D02*
X89759774Y-104943685D01*
X89759774Y-104943685D02*
X89688346Y-105086542D01*
X89688346Y-105086542D02*
X89688346Y-105300828D01*
X89688346Y-105300828D02*
X89759774Y-105443685D01*
X89759774Y-105443685D02*
X89831203Y-105515114D01*
X89831203Y-105515114D02*
X89974060Y-105586542D01*
X89974060Y-105586542D02*
X90545489Y-105586542D01*
X89045489Y-106300828D02*
X89045489Y-104800828D01*
X88045488Y-104800828D02*
X87759774Y-104800828D01*
X87759774Y-104800828D02*
X87616917Y-104872257D01*
X87616917Y-104872257D02*
X87474060Y-105015114D01*
X87474060Y-105015114D02*
X87402631Y-105300828D01*
X87402631Y-105300828D02*
X87402631Y-105800828D01*
X87402631Y-105800828D02*
X87474060Y-106086542D01*
X87474060Y-106086542D02*
X87616917Y-106229400D01*
X87616917Y-106229400D02*
X87759774Y-106300828D01*
X87759774Y-106300828D02*
X88045488Y-106300828D01*
X88045488Y-106300828D02*
X88188346Y-106229400D01*
X88188346Y-106229400D02*
X88331203Y-106086542D01*
X88331203Y-106086542D02*
X88402631Y-105800828D01*
X88402631Y-105800828D02*
X88402631Y-105300828D01*
X88402631Y-105300828D02*
X88331203Y-105015114D01*
X88331203Y-105015114D02*
X88188346Y-104872257D01*
X88188346Y-104872257D02*
X88045488Y-104800828D01*
X86831202Y-106229400D02*
X86688345Y-106300828D01*
X86688345Y-106300828D02*
X86402631Y-106300828D01*
X86402631Y-106300828D02*
X86259774Y-106229400D01*
X86259774Y-106229400D02*
X86188345Y-106086542D01*
X86188345Y-106086542D02*
X86188345Y-106015114D01*
X86188345Y-106015114D02*
X86259774Y-105872257D01*
X86259774Y-105872257D02*
X86402631Y-105800828D01*
X86402631Y-105800828D02*
X86616917Y-105800828D01*
X86616917Y-105800828D02*
X86759774Y-105729400D01*
X86759774Y-105729400D02*
X86831202Y-105586542D01*
X86831202Y-105586542D02*
X86831202Y-105515114D01*
X86831202Y-105515114D02*
X86759774Y-105372257D01*
X86759774Y-105372257D02*
X86616917Y-105300828D01*
X86616917Y-105300828D02*
X86402631Y-105300828D01*
X86402631Y-105300828D02*
X86259774Y-105372257D01*
D11*
X83477945Y-114781504D02*
X83001755Y-114781504D01*
X83573183Y-115067219D02*
X83239850Y-114067219D01*
X83239850Y-114067219D02*
X82906517Y-115067219D01*
X82573183Y-115067219D02*
X82573183Y-114067219D01*
X82144612Y-115019600D02*
X82001755Y-115067219D01*
X82001755Y-115067219D02*
X81763660Y-115067219D01*
X81763660Y-115067219D02*
X81668422Y-115019600D01*
X81668422Y-115019600D02*
X81620803Y-114971980D01*
X81620803Y-114971980D02*
X81573184Y-114876742D01*
X81573184Y-114876742D02*
X81573184Y-114781504D01*
X81573184Y-114781504D02*
X81620803Y-114686266D01*
X81620803Y-114686266D02*
X81668422Y-114638647D01*
X81668422Y-114638647D02*
X81763660Y-114591028D01*
X81763660Y-114591028D02*
X81954136Y-114543409D01*
X81954136Y-114543409D02*
X82049374Y-114495790D01*
X82049374Y-114495790D02*
X82096993Y-114448171D01*
X82096993Y-114448171D02*
X82144612Y-114352933D01*
X82144612Y-114352933D02*
X82144612Y-114257695D01*
X82144612Y-114257695D02*
X82096993Y-114162457D01*
X82096993Y-114162457D02*
X82049374Y-114114838D01*
X82049374Y-114114838D02*
X81954136Y-114067219D01*
X81954136Y-114067219D02*
X81716041Y-114067219D01*
X81716041Y-114067219D02*
X81573184Y-114114838D01*
X81144612Y-115067219D02*
X81144612Y-114067219D01*
X81144612Y-114543409D02*
X80573184Y-114543409D01*
X80573184Y-115067219D02*
X80573184Y-114067219D01*
X80192231Y-114067219D02*
X79954136Y-115067219D01*
X79954136Y-115067219D02*
X79763660Y-114352933D01*
X79763660Y-114352933D02*
X79573184Y-115067219D01*
X79573184Y-115067219D02*
X79335089Y-114067219D01*
X79001755Y-114781504D02*
X78525565Y-114781504D01*
X79096993Y-115067219D02*
X78763660Y-114067219D01*
X78763660Y-114067219D02*
X78430327Y-115067219D01*
X77525565Y-115067219D02*
X77858898Y-114591028D01*
X78096993Y-115067219D02*
X78096993Y-114067219D01*
X78096993Y-114067219D02*
X77716041Y-114067219D01*
X77716041Y-114067219D02*
X77620803Y-114114838D01*
X77620803Y-114114838D02*
X77573184Y-114162457D01*
X77573184Y-114162457D02*
X77525565Y-114257695D01*
X77525565Y-114257695D02*
X77525565Y-114400552D01*
X77525565Y-114400552D02*
X77573184Y-114495790D01*
X77573184Y-114495790D02*
X77620803Y-114543409D01*
X77620803Y-114543409D02*
X77716041Y-114591028D01*
X77716041Y-114591028D02*
X78096993Y-114591028D01*
X76906517Y-114591028D02*
X76906517Y-115067219D01*
X77239850Y-114067219D02*
X76906517Y-114591028D01*
X76906517Y-114591028D02*
X76573184Y-114067219D01*
X76287469Y-114781504D02*
X75811279Y-114781504D01*
X76382707Y-115067219D02*
X76049374Y-114067219D01*
X76049374Y-114067219D02*
X75716041Y-115067219D01*
X74620802Y-115067219D02*
X74620802Y-114067219D01*
X74620802Y-114067219D02*
X74382707Y-114067219D01*
X74382707Y-114067219D02*
X74239850Y-114114838D01*
X74239850Y-114114838D02*
X74144612Y-114210076D01*
X74144612Y-114210076D02*
X74096993Y-114305314D01*
X74096993Y-114305314D02*
X74049374Y-114495790D01*
X74049374Y-114495790D02*
X74049374Y-114638647D01*
X74049374Y-114638647D02*
X74096993Y-114829123D01*
X74096993Y-114829123D02*
X74144612Y-114924361D01*
X74144612Y-114924361D02*
X74239850Y-115019600D01*
X74239850Y-115019600D02*
X74382707Y-115067219D01*
X74382707Y-115067219D02*
X74620802Y-115067219D01*
X73620802Y-115067219D02*
X73620802Y-114067219D01*
X73239850Y-114067219D02*
X72573184Y-115067219D01*
X72573184Y-114067219D02*
X73239850Y-115067219D01*
X72192231Y-115067219D02*
X72192231Y-114067219D01*
X71858898Y-114067219D02*
X71287470Y-114067219D01*
X71573184Y-115067219D02*
X71573184Y-114067219D01*
M02*
