%TF.GenerationSoftware,KiCad,Pcbnew,9.0.7*%
%TF.CreationDate,2026-06-29T23:09:24+05:30*%
%TF.ProjectId,MCU Datalogger,4d435520-4461-4746-916c-6f676765722e,1*%
%TF.SameCoordinates,Original*%
%TF.FileFunction,Copper,L1,Top*%
%TF.FilePolarity,Positive*%
%FSLAX46Y46*%
G04 Gerber Fmt 4.6, Leading zero omitted, Abs format (unit mm)*
G04 Created by KiCad (PCBNEW 9.0.7) date 2026-06-29 23:09:24*
%MOMM*%
%LPD*%
G01*
G04 APERTURE LIST*
G04 Aperture macros list*
%AMRoundRect*
0 Rectangle with rounded corners*
0 $1 Rounding radius*
0 $2 $3 $4 $5 $6 $7 $8 $9 X,Y pos of 4 corners*
0 Add a 4 corners polygon primitive as box body*
4,1,4,$2,$3,$4,$5,$6,$7,$8,$9,$2,$3,0*
0 Add four circle primitives for the rounded corners*
1,1,$1+$1,$2,$3*
1,1,$1+$1,$4,$5*
1,1,$1+$1,$6,$7*
1,1,$1+$1,$8,$9*
0 Add four rect primitives between the rounded corners*
20,1,$1+$1,$2,$3,$4,$5,0*
20,1,$1+$1,$4,$5,$6,$7,0*
20,1,$1+$1,$6,$7,$8,$9,0*
20,1,$1+$1,$8,$9,$2,$3,0*%
G04 Aperture macros list end*
%TA.AperFunction,SMDPad,CuDef*%
%ADD10RoundRect,0.250000X0.262500X0.450000X-0.262500X0.450000X-0.262500X-0.450000X0.262500X-0.450000X0*%
%TD*%
%TA.AperFunction,ComponentPad*%
%ADD11R,1.700000X1.700000*%
%TD*%
%TA.AperFunction,ComponentPad*%
%ADD12C,1.700000*%
%TD*%
%TA.AperFunction,SMDPad,CuDef*%
%ADD13RoundRect,0.250000X-0.262500X-0.450000X0.262500X-0.450000X0.262500X0.450000X-0.262500X0.450000X0*%
%TD*%
%TA.AperFunction,SMDPad,CuDef*%
%ADD14RoundRect,0.250000X0.250000X0.475000X-0.250000X0.475000X-0.250000X-0.475000X0.250000X-0.475000X0*%
%TD*%
%TA.AperFunction,SMDPad,CuDef*%
%ADD15RoundRect,0.250001X-0.949999X1.499999X-0.949999X-1.499999X0.949999X-1.499999X0.949999X1.499999X0*%
%TD*%
%TA.AperFunction,SMDPad,CuDef*%
%ADD16RoundRect,0.073750X-0.911250X-0.221250X0.911250X-0.221250X0.911250X0.221250X-0.911250X0.221250X0*%
%TD*%
%TA.AperFunction,SMDPad,CuDef*%
%ADD17RoundRect,0.250000X-0.250000X-0.475000X0.250000X-0.475000X0.250000X0.475000X-0.250000X0.475000X0*%
%TD*%
%TA.AperFunction,SMDPad,CuDef*%
%ADD18RoundRect,0.162500X-0.650000X-0.162500X0.650000X-0.162500X0.650000X0.162500X-0.650000X0.162500X0*%
%TD*%
%TA.AperFunction,SMDPad,CuDef*%
%ADD19RoundRect,0.068750X-0.666250X-0.206250X0.666250X-0.206250X0.666250X0.206250X-0.666250X0.206250X0*%
%TD*%
%TA.AperFunction,SMDPad,CuDef*%
%ADD20RoundRect,0.068750X-0.206250X-0.666250X0.206250X-0.666250X0.206250X0.666250X-0.206250X0.666250X0*%
%TD*%
%TA.AperFunction,SMDPad,CuDef*%
%ADD21RoundRect,0.250001X1.499999X0.949999X-1.499999X0.949999X-1.499999X-0.949999X1.499999X-0.949999X0*%
%TD*%
%TA.AperFunction,SMDPad,CuDef*%
%ADD22RoundRect,0.243750X-0.243750X-0.456250X0.243750X-0.456250X0.243750X0.456250X-0.243750X0.456250X0*%
%TD*%
%TA.AperFunction,ViaPad*%
%ADD23C,0.900000*%
%TD*%
%TA.AperFunction,ViaPad*%
%ADD24C,0.800000*%
%TD*%
%TA.AperFunction,Conductor*%
%ADD25C,0.350000*%
%TD*%
%TA.AperFunction,Conductor*%
%ADD26C,0.250000*%
%TD*%
G04 APERTURE END LIST*
D10*
%TO.P,R5,1*%
%TO.N,GND*%
X103782500Y-95261333D03*
%TO.P,R5,2*%
%TO.N,Net-(D2-K)*%
X101957500Y-95261333D03*
%TD*%
%TO.P,R3,1*%
%TO.N,/Vcc*%
X99337500Y-102881333D03*
%TO.P,R3,2*%
%TO.N,/SCL*%
X97512500Y-102881333D03*
%TD*%
D11*
%TO.P,J1,1,Pin_1*%
%TO.N,GND*%
X109855000Y-104786333D03*
D12*
%TO.P,J1,2,Pin_2*%
%TO.N,/Vcc*%
X109855000Y-107326333D03*
%TO.P,J1,3,Pin_3*%
%TO.N,/SDA*%
X109855000Y-109866333D03*
%TO.P,J1,4,Pin_4*%
%TO.N,/SCL*%
X109855000Y-112406333D03*
%TD*%
D13*
%TO.P,R6,1*%
%TO.N,/Vcc*%
X101957500Y-99071333D03*
%TO.P,R6,2*%
%TO.N,/RESET*%
X103782500Y-99071333D03*
%TD*%
D14*
%TO.P,C2,1*%
%TO.N,GND*%
X99375000Y-106056333D03*
%TO.P,C2,2*%
%TO.N,Net-(U4-PB6)*%
X97475000Y-106056333D03*
%TD*%
D11*
%TO.P,J4,1,Pin_1*%
%TO.N,/MISO*%
X107310000Y-95896333D03*
D12*
%TO.P,J4,2,Pin_2*%
%TO.N,/Vcc*%
X109850000Y-95896333D03*
%TO.P,J4,3,Pin_3*%
%TO.N,/SCK*%
X107310000Y-98436333D03*
%TO.P,J4,4,Pin_4*%
%TO.N,/MOSI*%
X109850000Y-98436333D03*
%TO.P,J4,5,Pin_5*%
%TO.N,/RESET*%
X107310000Y-100976333D03*
%TO.P,J4,6,Pin_6*%
%TO.N,GND*%
X109850000Y-100976333D03*
%TD*%
D14*
%TO.P,C4,1*%
%TO.N,GND*%
X99375000Y-109866333D03*
%TO.P,C4,2*%
%TO.N,Net-(U4-AREF)*%
X97475000Y-109866333D03*
%TD*%
D13*
%TO.P,R1,1*%
%TO.N,/Vcc*%
X72812500Y-112406333D03*
%TO.P,R1,2*%
%TO.N,Net-(U3-~{INTA})*%
X74637500Y-112406333D03*
%TD*%
D11*
%TO.P,J3,1,Pin_1*%
%TO.N,/D2*%
X72390000Y-116851333D03*
D12*
%TO.P,J3,2,Pin_2*%
%TO.N,/D3*%
X74930000Y-116851333D03*
%TO.P,J3,3,Pin_3*%
%TO.N,/D4*%
X77470000Y-116851333D03*
%TO.P,J3,4,Pin_4*%
%TO.N,/D5*%
X80010000Y-116851333D03*
%TO.P,J3,5,Pin_5*%
%TO.N,/D6*%
X82550000Y-116851333D03*
%TO.P,J3,6,Pin_6*%
%TO.N,/D7*%
X85090000Y-116851333D03*
%TO.P,J3,7,Pin_7*%
%TO.N,/D8*%
X87630000Y-116851333D03*
%TO.P,J3,8,Pin_8*%
%TO.N,GND*%
X90170000Y-116851333D03*
%TO.P,J3,9,Pin_9*%
%TO.N,/Vcc*%
X92710000Y-116851333D03*
%TD*%
D11*
%TO.P,J2,1,Pin_1*%
%TO.N,GND*%
X97790000Y-116851333D03*
D12*
%TO.P,J2,2,Pin_2*%
%TO.N,/Vcc*%
X100330000Y-116851333D03*
%TO.P,J2,3,Pin_3*%
%TO.N,/RX*%
X102870000Y-116851333D03*
%TO.P,J2,4,Pin_4*%
%TO.N,/TX*%
X105410000Y-116851333D03*
%TD*%
D15*
%TO.P,Y1,1,1*%
%TO.N,Net-(U3-X1)*%
X69215000Y-105421333D03*
%TO.P,Y1,2,2*%
%TO.N,Net-(U3-X2)*%
X69215000Y-110621333D03*
%TD*%
D16*
%TO.P,U3,1,X1*%
%TO.N,Net-(U3-X1)*%
X74360000Y-105421333D03*
%TO.P,U3,2,X2*%
%TO.N,Net-(U3-X2)*%
X74360000Y-106691333D03*
%TO.P,U3,3,~{INTA}*%
%TO.N,Net-(U3-~{INTA})*%
X74360000Y-107961333D03*
%TO.P,U3,4,GND*%
%TO.N,GND*%
X74360000Y-109231333D03*
%TO.P,U3,5,SDA*%
%TO.N,/SDA*%
X79310000Y-109231333D03*
%TO.P,U3,6,SCL*%
%TO.N,/SCL*%
X79310000Y-107961333D03*
%TO.P,U3,7,SQW/~INT*%
%TO.N,Net-(U3-SQW{slash}~INT)*%
X79310000Y-106691333D03*
%TO.P,U3,8,VCC*%
%TO.N,/Vcc*%
X79310000Y-105421333D03*
%TD*%
D17*
%TO.P,C5,1*%
%TO.N,/Vcc*%
X93030000Y-91451333D03*
%TO.P,C5,2*%
%TO.N,GND*%
X94930000Y-91451333D03*
%TD*%
D10*
%TO.P,R2,1*%
%TO.N,Net-(U3-SQW{slash}~INT)*%
X78447500Y-112406333D03*
%TO.P,R2,2*%
%TO.N,/Vcc*%
X76622500Y-112406333D03*
%TD*%
D11*
%TO.P,BT1,1,+*%
%TO.N,/Vcc*%
X69215000Y-97221333D03*
D12*
%TO.P,BT1,2,-*%
%TO.N,GND*%
X69215000Y-99761333D03*
%TD*%
D14*
%TO.P,C1,1*%
%TO.N,GND*%
X86040000Y-91451333D03*
%TO.P,C1,2*%
%TO.N,/Vcc*%
X84140000Y-91451333D03*
%TD*%
D18*
%TO.P,U1,1,A0*%
%TO.N,/Vcc*%
X73312500Y-98436333D03*
%TO.P,U1,2,A1*%
X73312500Y-99706333D03*
%TO.P,U1,3,A2*%
X73312500Y-100976333D03*
%TO.P,U1,4,GND*%
%TO.N,GND*%
X73312500Y-102246333D03*
%TO.P,U1,5,SDA*%
%TO.N,/SDA*%
X80487500Y-102246333D03*
%TO.P,U1,6,SCL*%
%TO.N,/SCL*%
X80487500Y-100976333D03*
%TO.P,U1,7,WP*%
%TO.N,GND*%
X80487500Y-99706333D03*
%TO.P,U1,8,VCC*%
%TO.N,/Vcc*%
X80487500Y-98436333D03*
%TD*%
D19*
%TO.P,U4,1,PD3*%
%TO.N,/D3*%
X84730000Y-97901333D03*
%TO.P,U4,2,PD4*%
%TO.N,/D4*%
X84730000Y-98701333D03*
%TO.P,U4,3,GND*%
%TO.N,GND*%
X84730000Y-99501333D03*
%TO.P,U4,4,VCC*%
%TO.N,VCC*%
X84730000Y-100301333D03*
%TO.P,U4,5,GND*%
%TO.N,GND*%
X84730000Y-101101333D03*
%TO.P,U4,6,VCC*%
%TO.N,VCC*%
X84730000Y-101901333D03*
%TO.P,U4,7,PB6*%
%TO.N,Net-(U4-PB6)*%
X84730000Y-102701333D03*
%TO.P,U4,8,PB7*%
%TO.N,Net-(U4-PB7)*%
X84730000Y-103501333D03*
D20*
%TO.P,U4,9,PD5*%
%TO.N,/D5*%
X86100000Y-104871333D03*
%TO.P,U4,10,PD6*%
%TO.N,/D6*%
X86900000Y-104871333D03*
%TO.P,U4,11,PD7*%
%TO.N,/D7*%
X87700000Y-104871333D03*
%TO.P,U4,12,PB0*%
%TO.N,/D8*%
X88500000Y-104871333D03*
%TO.P,U4,13,PB1*%
%TO.N,unconnected-(U4-PB1-Pad13)*%
X89300000Y-104871333D03*
%TO.P,U4,14,PB2*%
%TO.N,unconnected-(U4-PB2-Pad14)*%
X90100000Y-104871333D03*
%TO.P,U4,15,PB3*%
%TO.N,/MOSI*%
X90900000Y-104871333D03*
%TO.P,U4,16,PB4*%
%TO.N,/MISO*%
X91700000Y-104871333D03*
D19*
%TO.P,U4,17,PB5*%
%TO.N,/SCK*%
X93070000Y-103501333D03*
%TO.P,U4,18,AVCC*%
%TO.N,/Vcc*%
X93070000Y-102701333D03*
%TO.P,U4,19,ADC6*%
%TO.N,unconnected-(U4-ADC6-Pad19)*%
X93070000Y-101901333D03*
%TO.P,U4,20,AREF*%
%TO.N,Net-(U4-AREF)*%
X93070000Y-101101333D03*
%TO.P,U4,21,GND*%
%TO.N,GND*%
X93070000Y-100301333D03*
%TO.P,U4,22,ADC7*%
%TO.N,unconnected-(U4-ADC7-Pad22)*%
X93070000Y-99501333D03*
%TO.P,U4,23,PC0*%
%TO.N,unconnected-(U4-PC0-Pad23)*%
X93070000Y-98701333D03*
%TO.P,U4,24,PC1*%
%TO.N,unconnected-(U4-PC1-Pad24)*%
X93070000Y-97901333D03*
D20*
%TO.P,U4,25,PC2*%
%TO.N,unconnected-(U4-PC2-Pad25)*%
X91700000Y-96531333D03*
%TO.P,U4,26,PC3*%
%TO.N,unconnected-(U4-PC3-Pad26)*%
X90900000Y-96531333D03*
%TO.P,U4,27,PC4*%
%TO.N,/SDA*%
X90100000Y-96531333D03*
%TO.P,U4,28,PC5*%
%TO.N,/SCL*%
X89300000Y-96531333D03*
%TO.P,U4,29,PC6/~{RESET}*%
%TO.N,/RESET*%
X88500000Y-96531333D03*
%TO.P,U4,30,PD0*%
%TO.N,/RX*%
X87700000Y-96531333D03*
%TO.P,U4,31,PD1*%
%TO.N,/TX*%
X86900000Y-96531333D03*
%TO.P,U4,32,PD2*%
%TO.N,/D2*%
X86100000Y-96531333D03*
%TD*%
D21*
%TO.P,Y2,1,1*%
%TO.N,Net-(U4-PB7)*%
X92135000Y-109231333D03*
%TO.P,Y2,2,2*%
%TO.N,Net-(U4-PB6)*%
X86935000Y-109231333D03*
%TD*%
D10*
%TO.P,R7,1*%
%TO.N,GND*%
X99337500Y-95261333D03*
%TO.P,R7,2*%
%TO.N,Net-(D1-K)*%
X97512500Y-95261333D03*
%TD*%
D13*
%TO.P,R4,1*%
%TO.N,/SDA*%
X97512500Y-99071333D03*
%TO.P,R4,2*%
%TO.N,/Vcc*%
X99337500Y-99071333D03*
%TD*%
D18*
%TO.P,U2,1,A0*%
%TO.N,/Vcc*%
X73312500Y-91451333D03*
%TO.P,U2,2,A1*%
%TO.N,GND*%
X73312500Y-92721333D03*
%TO.P,U2,3,A2*%
%TO.N,/Vcc*%
X73312500Y-93991333D03*
%TO.P,U2,4,GND*%
%TO.N,GND*%
X73312500Y-95261333D03*
%TO.P,U2,5,SDA*%
%TO.N,/SDA*%
X80487500Y-95261333D03*
%TO.P,U2,6,SCL*%
%TO.N,/SCL*%
X80487500Y-93991333D03*
%TO.P,U2,7,WP*%
%TO.N,GND*%
X80487500Y-92721333D03*
%TO.P,U2,8,VCC*%
%TO.N,/Vcc*%
X80487500Y-91451333D03*
%TD*%
D22*
%TO.P,D2,1,K*%
%TO.N,Net-(D2-K)*%
X101932500Y-91451333D03*
%TO.P,D2,2,A*%
%TO.N,/SCK*%
X103807500Y-91451333D03*
%TD*%
D17*
%TO.P,C3,1*%
%TO.N,GND*%
X88585000Y-91451333D03*
%TO.P,C3,2*%
%TO.N,Net-(U4-PB7)*%
X90485000Y-91451333D03*
%TD*%
D22*
%TO.P,D1,1,K*%
%TO.N,Net-(D1-K)*%
X97790000Y-91451333D03*
%TO.P,D1,2,A*%
%TO.N,/Vcc*%
X99665000Y-91451333D03*
%TD*%
D23*
%TO.N,GND*%
X94930000Y-91451333D03*
X100700000Y-106101333D03*
X85886117Y-99501333D03*
X79000000Y-99701333D03*
X99250000Y-93601333D03*
X75747501Y-108793431D03*
%TO.N,/Vcc*%
X104800000Y-97201333D03*
X75850000Y-112486397D03*
X79150000Y-91401333D03*
X79050000Y-98351333D03*
X75100000Y-100951333D03*
D24*
X94550000Y-95901333D03*
X93150000Y-93001333D03*
%TO.N,Net-(U4-PB7)*%
X90550000Y-92801333D03*
X84730000Y-103576333D03*
%TO.N,Net-(U4-AREF)*%
X91700000Y-101151333D03*
X96300000Y-109851333D03*
%TO.N,/SDA*%
X102200000Y-105751333D03*
X97550000Y-100801333D03*
X87600000Y-94301333D03*
X80600000Y-96451333D03*
%TO.N,/TX*%
X88550000Y-99301333D03*
%TO.N,/RX*%
X87700000Y-98401333D03*
%TO.N,/D6*%
X86921156Y-106099849D03*
X84900000Y-111951333D03*
%TO.N,/D7*%
X87628265Y-106806958D03*
X86300000Y-111851333D03*
%TO.N,/D5*%
X84600000Y-108101333D03*
X86025000Y-104871333D03*
%TO.N,/D8*%
X88550000Y-106201333D03*
X87600000Y-111351333D03*
%TO.N,/RESET*%
X102700000Y-100501333D03*
X88500000Y-97651333D03*
%TO.N,/SCL*%
X96350000Y-102751333D03*
X105500000Y-111701333D03*
X90485000Y-98451333D03*
%TD*%
D25*
%TO.N,GND*%
X93779000Y-90300333D02*
X94930000Y-91451333D01*
X74124999Y-95261333D02*
X74930000Y-94456332D01*
X84730000Y-99501333D02*
X85504088Y-99501333D01*
X93070000Y-100301333D02*
X86686117Y-100301333D01*
X84730000Y-99501333D02*
X85886117Y-99501333D01*
X84770000Y-92721333D02*
X86040000Y-91451333D01*
X80487500Y-92721333D02*
X84770000Y-92721333D01*
X89736000Y-90300333D02*
X93779000Y-90300333D01*
X75309599Y-109231333D02*
X75747501Y-108793431D01*
X102656500Y-96387333D02*
X103782500Y-95261333D01*
X86686117Y-100301333D02*
X85886117Y-99501333D01*
X88585000Y-91451333D02*
X89736000Y-90300333D01*
X99337500Y-95261333D02*
X99337500Y-93688833D01*
X74930000Y-92721333D02*
X80487500Y-92721333D01*
X73312500Y-102246333D02*
X71700000Y-102246333D01*
X74930000Y-94456332D02*
X74930000Y-92721333D01*
X73312500Y-95261333D02*
X74124999Y-95261333D01*
X86040000Y-91451333D02*
X88585000Y-91451333D01*
X73312500Y-92721333D02*
X74930000Y-92721333D01*
X85504088Y-99501333D02*
X85891000Y-99888245D01*
X100655000Y-106056333D02*
X100700000Y-106101333D01*
X79005000Y-99706333D02*
X79000000Y-99701333D01*
X71700000Y-102246333D02*
X69215000Y-99761333D01*
X99337500Y-93688833D02*
X99250000Y-93601333D01*
X85504088Y-101101333D02*
X84730000Y-101101333D01*
X99375000Y-109866333D02*
X99375000Y-106056333D01*
X74360000Y-109231333D02*
X75309599Y-109231333D01*
X73080000Y-95261333D02*
X73312500Y-95261333D01*
X100463500Y-96387333D02*
X102656500Y-96387333D01*
X85891000Y-100714421D02*
X85504088Y-101101333D01*
X85891000Y-99888245D02*
X85891000Y-100714421D01*
X99375000Y-106056333D02*
X100655000Y-106056333D01*
X80487500Y-99706333D02*
X79005000Y-99706333D01*
X99337500Y-95261333D02*
X100463500Y-96387333D01*
%TO.N,/Vcc*%
X103827500Y-97201333D02*
X104800000Y-97201333D01*
X76622500Y-112406333D02*
X76622500Y-110501333D01*
X96530374Y-92189100D02*
X96530374Y-90306205D01*
X76622500Y-112406333D02*
X75930064Y-112406333D01*
X69215000Y-93970277D02*
X69215000Y-97221333D01*
X99054000Y-118127333D02*
X93986000Y-118127333D01*
X95618141Y-93101333D02*
X96530374Y-92189100D01*
X76622500Y-110501333D02*
X76622500Y-107537535D01*
X74717500Y-110501333D02*
X76622500Y-110501333D01*
X79150000Y-89558333D02*
X79248000Y-89460333D01*
X73312500Y-99706333D02*
X73312500Y-100976333D01*
X101957500Y-99071333D02*
X99337500Y-99071333D01*
X99337500Y-102881333D02*
X99337500Y-99071333D01*
X99665000Y-91451333D02*
X99665000Y-90766333D01*
X94680000Y-93101333D02*
X95618141Y-93101333D01*
X93986000Y-118127333D02*
X92710000Y-116851333D01*
X73312500Y-93991333D02*
X72500001Y-93991333D01*
X73312500Y-91451333D02*
X79100000Y-91451333D01*
X73724944Y-89460333D02*
X69215000Y-93970277D01*
X100330000Y-116851333D02*
X99054000Y-118127333D01*
X101957500Y-99071333D02*
X103827500Y-97201333D01*
X72933232Y-91451333D02*
X73312500Y-91451333D01*
X79100000Y-91451333D02*
X79150000Y-91401333D01*
X75930064Y-112406333D02*
X75850000Y-112486397D01*
X93030000Y-91451333D02*
X94680000Y-93101333D01*
X73825000Y-100976333D02*
X78270000Y-105421333D01*
X79248000Y-89460333D02*
X73724944Y-89460333D01*
X94550000Y-102501333D02*
X94550000Y-95901333D01*
X79200000Y-91451333D02*
X79150000Y-91401333D01*
X93150000Y-91571333D02*
X93030000Y-91451333D01*
X78270000Y-105421333D02*
X79310000Y-105421333D01*
X93070000Y-102701333D02*
X94350000Y-102701333D01*
X72812500Y-112406333D02*
X74717500Y-110501333D01*
X93150000Y-93001333D02*
X93150000Y-91571333D01*
X78738702Y-105421333D02*
X79310000Y-105421333D01*
X96530374Y-90306205D02*
X96275502Y-90051333D01*
X73312500Y-98436333D02*
X73312500Y-99706333D01*
X80487500Y-91451333D02*
X84140000Y-91451333D01*
X73312500Y-100976333D02*
X73825000Y-100976333D01*
X99665000Y-90766333D02*
X98950000Y-90051333D01*
X80487500Y-91451333D02*
X79200000Y-91451333D01*
X79135000Y-98436333D02*
X79050000Y-98351333D01*
X72500001Y-93991333D02*
X71850000Y-93341332D01*
X80487500Y-98436333D02*
X79135000Y-98436333D01*
X96275502Y-90051333D02*
X95684502Y-89460333D01*
X73337500Y-100951333D02*
X73312500Y-100976333D01*
X71850000Y-93341332D02*
X71850000Y-92534565D01*
X76622500Y-107537535D02*
X78738702Y-105421333D01*
X98950000Y-90051333D02*
X96275502Y-90051333D01*
X95684502Y-89460333D02*
X79248000Y-89460333D01*
X75100000Y-100951333D02*
X73337500Y-100951333D01*
X94350000Y-102701333D02*
X94550000Y-102501333D01*
X79150000Y-91401333D02*
X79150000Y-89558333D01*
X71850000Y-92534565D02*
X72933232Y-91451333D01*
D26*
%TO.N,Net-(U4-PB6)*%
X88461000Y-110757333D02*
X93880514Y-110757333D01*
X93880514Y-110757333D02*
X97475000Y-107162847D01*
X86935000Y-109231333D02*
X88461000Y-110757333D01*
X83669000Y-103027333D02*
X83995000Y-102701333D01*
X83669000Y-105965333D02*
X83669000Y-103027333D01*
X86935000Y-109231333D02*
X83669000Y-105965333D01*
X83995000Y-102701333D02*
X84730000Y-102701333D01*
X97475000Y-107162847D02*
X97475000Y-106056333D01*
%TO.N,Net-(U4-PB7)*%
X87501334Y-107705333D02*
X84730000Y-104933999D01*
X90485000Y-91451333D02*
X90485000Y-92736333D01*
X90609000Y-107705333D02*
X87501334Y-107705333D01*
X92135000Y-109231333D02*
X90609000Y-107705333D01*
X90485000Y-92736333D02*
X90550000Y-92801333D01*
X84730000Y-104933999D02*
X84730000Y-103501333D01*
%TO.N,Net-(U4-AREF)*%
X91700000Y-101151333D02*
X93020000Y-101151333D01*
X93020000Y-101151333D02*
X93070000Y-101101333D01*
X96315000Y-109866333D02*
X96300000Y-109851333D01*
X97475000Y-109866333D02*
X96315000Y-109866333D01*
%TO.N,Net-(D1-K)*%
X97512500Y-95261333D02*
X97512500Y-91728833D01*
X97512500Y-91728833D02*
X97790000Y-91451333D01*
%TO.N,Net-(D2-K)*%
X101957500Y-91476333D02*
X101932500Y-91451333D01*
X101957500Y-95261333D02*
X101957500Y-91476333D01*
%TO.N,/SCK*%
X103807500Y-91451333D02*
X104671000Y-92314833D01*
X104671000Y-93356333D02*
X104671000Y-95797333D01*
X102254268Y-97995333D02*
X103874268Y-96375333D01*
X105249000Y-96375333D02*
X107310000Y-98436333D01*
X98449000Y-101052333D02*
X98449000Y-98355107D01*
X96463280Y-101611333D02*
X97890000Y-101611333D01*
X97890000Y-101611333D02*
X98449000Y-101052333D01*
X98449000Y-98355107D02*
X98808774Y-97995333D01*
X98808774Y-97995333D02*
X102254268Y-97995333D01*
X94573280Y-103501333D02*
X96463280Y-101611333D01*
X104671000Y-95797333D02*
X107310000Y-98436333D01*
X104671000Y-92314833D02*
X104671000Y-93356333D01*
X103874268Y-96375333D02*
X105249000Y-96375333D01*
X93070000Y-103501333D02*
X94573280Y-103501333D01*
%TO.N,/SDA*%
X80487500Y-95261333D02*
X80487500Y-96338833D01*
X91397334Y-94601333D02*
X90100000Y-95898667D01*
X80487500Y-96338833D02*
X80600000Y-96451333D01*
X87600000Y-94301333D02*
X88605000Y-94301333D01*
X80671000Y-102429833D02*
X80671000Y-108855333D01*
X80295000Y-109231333D02*
X79310000Y-109231333D01*
X80487500Y-102246333D02*
X80671000Y-102429833D01*
X90100000Y-95898667D02*
X90100000Y-96531333D01*
X109855000Y-109866333D02*
X105740000Y-105751333D01*
X97550000Y-99108833D02*
X97512500Y-99071333D01*
X79675001Y-102246333D02*
X80487500Y-102246333D01*
X80671000Y-108855333D02*
X80295000Y-109231333D01*
X90100000Y-95796333D02*
X90100000Y-96531333D01*
X80487500Y-95261333D02*
X78174000Y-97574833D01*
X97512500Y-97263833D02*
X94850000Y-94601333D01*
X105740000Y-105751333D02*
X102200000Y-105751333D01*
X94850000Y-94601333D02*
X91397334Y-94601333D01*
X97512500Y-99071333D02*
X97512500Y-97263833D01*
X78174000Y-97574833D02*
X78174000Y-100745332D01*
X97550000Y-100801333D02*
X97550000Y-99108833D01*
X78174000Y-100745332D02*
X79675001Y-102246333D01*
X88605000Y-94301333D02*
X90100000Y-95796333D01*
%TO.N,/TX*%
X86900000Y-98628053D02*
X86900000Y-96531333D01*
X87573280Y-99301333D02*
X86900000Y-98628053D01*
X88550000Y-99301333D02*
X87573280Y-99301333D01*
%TO.N,/RX*%
X87700000Y-98401333D02*
X87700000Y-96531333D01*
%TO.N,/D6*%
X84900000Y-114501333D02*
X84900000Y-111951333D01*
X82550000Y-116851333D02*
X84900000Y-114501333D01*
X86921156Y-106099849D02*
X86921156Y-104892489D01*
X86921156Y-104892489D02*
X86900000Y-104871333D01*
%TO.N,/D7*%
X87628265Y-106806958D02*
X87700000Y-106735223D01*
X85090000Y-116851333D02*
X86300000Y-115641333D01*
X86300000Y-115641333D02*
X86300000Y-111851333D01*
X87700000Y-106735223D02*
X87700000Y-104871333D01*
%TO.N,/D2*%
X82127000Y-97974333D02*
X83570000Y-96531333D01*
X72390000Y-116851333D02*
X72400000Y-116851333D01*
X74700000Y-114551333D02*
X77836514Y-114551333D01*
X83570000Y-96531333D02*
X86100000Y-96531333D01*
X77836514Y-114551333D02*
X82127000Y-110260847D01*
X72400000Y-116851333D02*
X74700000Y-114551333D01*
X82127000Y-110260847D02*
X82127000Y-97974333D01*
%TO.N,/D5*%
X84600000Y-108101333D02*
X84100000Y-108601333D01*
X84100000Y-112751333D02*
X80010000Y-116841333D01*
X84100000Y-108601333D02*
X84100000Y-112751333D01*
X80010000Y-116841333D02*
X80010000Y-116851333D01*
%TO.N,/D4*%
X83029000Y-111292333D02*
X83029000Y-99698955D01*
X84026622Y-98701333D02*
X84730000Y-98701333D01*
X77470000Y-116851333D02*
X83029000Y-111292333D01*
X83029000Y-99698955D02*
X84026622Y-98701333D01*
%TO.N,/D8*%
X87630000Y-111381333D02*
X87600000Y-111351333D01*
X88550000Y-106201333D02*
X88550000Y-104921333D01*
X88550000Y-104921333D02*
X88500000Y-104871333D01*
X87630000Y-116851333D02*
X87630000Y-111381333D01*
%TO.N,/D3*%
X82578000Y-99318333D02*
X83995000Y-97901333D01*
X74930000Y-116851333D02*
X76730000Y-115051333D01*
X83995000Y-97901333D02*
X84730000Y-97901333D01*
X78350000Y-115051333D02*
X82578000Y-110823333D01*
X82578000Y-110823333D02*
X82578000Y-99318333D01*
X76730000Y-115051333D02*
X78350000Y-115051333D01*
%TO.N,/MISO*%
X108486000Y-101463449D02*
X105848116Y-104101333D01*
X108486000Y-97072333D02*
X108486000Y-101463449D01*
X107310000Y-95896333D02*
X108486000Y-97072333D01*
X92470000Y-104101333D02*
X91700000Y-104871333D01*
X105848116Y-104101333D02*
X92470000Y-104101333D01*
%TO.N,/MOSI*%
X92071666Y-105932333D02*
X91226000Y-105932333D01*
X106589174Y-104955333D02*
X93048666Y-104955333D01*
X111076000Y-101675333D02*
X110000000Y-102751333D01*
X111076000Y-99662333D02*
X111076000Y-101675333D01*
X110000000Y-102751333D02*
X108793174Y-102751333D01*
X91226000Y-105932333D02*
X90900000Y-105606333D01*
X90900000Y-105606333D02*
X90900000Y-104871333D01*
X93048666Y-104955333D02*
X92071666Y-105932333D01*
X108793174Y-102751333D02*
X106589174Y-104955333D01*
X109850000Y-98436333D02*
X111076000Y-99662333D01*
%TO.N,/RESET*%
X102700000Y-100153833D02*
X103782500Y-99071333D01*
X103782500Y-99071333D02*
X105405000Y-99071333D01*
X105405000Y-99071333D02*
X107310000Y-100976333D01*
X88500000Y-96531333D02*
X88500000Y-97651333D01*
X102700000Y-100501333D02*
X102700000Y-100153833D01*
%TO.N,Net-(U3-~{INTA})*%
X74360000Y-107961333D02*
X73375000Y-107961333D01*
X73375000Y-107961333D02*
X71924000Y-109412333D01*
X71924000Y-113122559D02*
X72283774Y-113482333D01*
X73561500Y-113482333D02*
X74637500Y-112406333D01*
X71924000Y-109412333D02*
X71924000Y-113122559D01*
X72283774Y-113482333D02*
X73561500Y-113482333D01*
%TO.N,Net-(U3-SQW{slash}~INT)*%
X77500000Y-107951333D02*
X77500000Y-111458833D01*
X77500000Y-111458833D02*
X78447500Y-112406333D01*
X79310000Y-106691333D02*
X78760000Y-106691333D01*
X78760000Y-106691333D02*
X77500000Y-107951333D01*
%TO.N,Net-(U3-X1)*%
X69215000Y-105421333D02*
X74360000Y-105421333D01*
%TO.N,Net-(U3-X2)*%
X69215000Y-110621333D02*
X73145000Y-106691333D01*
X73145000Y-106691333D02*
X74360000Y-106691333D01*
%TO.N,VCC*%
X83619000Y-100677333D02*
X83619000Y-101525333D01*
X83995000Y-101901333D02*
X84730000Y-101901333D01*
X84730000Y-100301333D02*
X83995000Y-100301333D01*
X83619000Y-101525333D02*
X83995000Y-101901333D01*
X83995000Y-100301333D02*
X83619000Y-100677333D01*
%TO.N,/SCL*%
X106205000Y-112406333D02*
X109855000Y-112406333D01*
X78231124Y-109852333D02*
X77999000Y-109620209D01*
X80487500Y-100976333D02*
X80725346Y-100976333D01*
X105500000Y-111701333D02*
X106205000Y-112406333D01*
X78325000Y-107961333D02*
X79310000Y-107961333D01*
X81650000Y-108701333D02*
X80388876Y-109852333D01*
X97382500Y-102751333D02*
X97512500Y-102881333D01*
X77999000Y-108287333D02*
X78325000Y-107961333D01*
X81676000Y-100096389D02*
X80796056Y-100976333D01*
X88662666Y-95261333D02*
X81676000Y-95261333D01*
X80388876Y-109852333D02*
X78231124Y-109852333D01*
X90485000Y-98451333D02*
X89300000Y-97266333D01*
X80796056Y-100976333D02*
X80487500Y-100976333D01*
X81676000Y-94367334D02*
X81676000Y-95261333D01*
X81626000Y-101876987D02*
X81650000Y-108701333D01*
X81299999Y-93991333D02*
X81676000Y-94367334D01*
X96350000Y-102751333D02*
X97382500Y-102751333D01*
X80725346Y-100976333D02*
X81626000Y-101876987D01*
X89300000Y-96531333D02*
X89300000Y-95898667D01*
X77999000Y-109620209D02*
X77999000Y-108287333D01*
X89300000Y-97266333D02*
X89300000Y-96531333D01*
X80487500Y-93991333D02*
X81299999Y-93991333D01*
X81676000Y-95261333D02*
X81676000Y-100096389D01*
X89300000Y-95898667D02*
X88662666Y-95261333D01*
%TD*%
M02*
