%TF.GenerationSoftware,KiCad,Pcbnew,9.0.7*%
%TF.CreationDate,2026-06-29T23:09:24+05:30*%
%TF.ProjectId,MCU Datalogger,4d435520-4461-4746-916c-6f676765722e,1*%
%TF.SameCoordinates,Original*%
%TF.FileFunction,Paste,Top*%
%TF.FilePolarity,Positive*%
%FSLAX46Y46*%
G04 Gerber Fmt 4.6, Leading zero omitted, Abs format (unit mm)*
G04 Created by KiCad (PCBNEW 9.0.7) date 2026-06-29 23:09:24*
%MOMM*%
%LPD*%
G01*
G04 APERTURE LIST*
G04 Aperture macros list*
%AMRoundRect*
0 Rectangle with rounded corners*
0 $1 Rounding radius*
0 $2 $3 $4 $5 $6 $7 $8 $9 X,Y pos of 4 corners*
0 Add a 4 corners polygon primitive as box body*
4,1,4,$2,$3,$4,$5,$6,$7,$8,$9,$2,$3,0*
0 Add four circle primitives for the rounded corners*
1,1,$1+$1,$2,$3*
1,1,$1+$1,$4,$5*
1,1,$1+$1,$6,$7*
1,1,$1+$1,$8,$9*
0 Add four rect primitives between the rounded corners*
20,1,$1+$1,$2,$3,$4,$5,0*
20,1,$1+$1,$4,$5,$6,$7,0*
20,1,$1+$1,$6,$7,$8,$9,0*
20,1,$1+$1,$8,$9,$2,$3,0*%
G04 Aperture macros list end*
%ADD10RoundRect,0.250000X0.262500X0.450000X-0.262500X0.450000X-0.262500X-0.450000X0.262500X-0.450000X0*%
%ADD11RoundRect,0.250000X-0.262500X-0.450000X0.262500X-0.450000X0.262500X0.450000X-0.262500X0.450000X0*%
%ADD12RoundRect,0.250000X0.250000X0.475000X-0.250000X0.475000X-0.250000X-0.475000X0.250000X-0.475000X0*%
%ADD13RoundRect,0.250001X-0.949999X1.499999X-0.949999X-1.499999X0.949999X-1.499999X0.949999X1.499999X0*%
%ADD14RoundRect,0.073750X-0.911250X-0.221250X0.911250X-0.221250X0.911250X0.221250X-0.911250X0.221250X0*%
%ADD15RoundRect,0.250000X-0.250000X-0.475000X0.250000X-0.475000X0.250000X0.475000X-0.250000X0.475000X0*%
%ADD16RoundRect,0.162500X-0.650000X-0.162500X0.650000X-0.162500X0.650000X0.162500X-0.650000X0.162500X0*%
%ADD17RoundRect,0.068750X-0.666250X-0.206250X0.666250X-0.206250X0.666250X0.206250X-0.666250X0.206250X0*%
%ADD18RoundRect,0.068750X-0.206250X-0.666250X0.206250X-0.666250X0.206250X0.666250X-0.206250X0.666250X0*%
%ADD19RoundRect,0.250001X1.499999X0.949999X-1.499999X0.949999X-1.499999X-0.949999X1.499999X-0.949999X0*%
%ADD20RoundRect,0.243750X-0.243750X-0.456250X0.243750X-0.456250X0.243750X0.456250X-0.243750X0.456250X0*%
G04 APERTURE END LIST*
D10*
%TO.C,R5*%
X103782500Y-95261333D03*
X101957500Y-95261333D03*
%TD*%
%TO.C,R3*%
X99337500Y-102881333D03*
X97512500Y-102881333D03*
%TD*%
D11*
%TO.C,R6*%
X101957500Y-99071333D03*
X103782500Y-99071333D03*
%TD*%
D12*
%TO.C,C2*%
X99375000Y-106056333D03*
X97475000Y-106056333D03*
%TD*%
%TO.C,C4*%
X99375000Y-109866333D03*
X97475000Y-109866333D03*
%TD*%
D11*
%TO.C,R1*%
X72812500Y-112406333D03*
X74637500Y-112406333D03*
%TD*%
D13*
%TO.C,Y1*%
X69215000Y-105421333D03*
X69215000Y-110621333D03*
%TD*%
D14*
%TO.C,U3*%
X74360000Y-105421333D03*
X74360000Y-106691333D03*
X74360000Y-107961333D03*
X74360000Y-109231333D03*
X79310000Y-109231333D03*
X79310000Y-107961333D03*
X79310000Y-106691333D03*
X79310000Y-105421333D03*
%TD*%
D15*
%TO.C,C5*%
X93030000Y-91451333D03*
X94930000Y-91451333D03*
%TD*%
D10*
%TO.C,R2*%
X78447500Y-112406333D03*
X76622500Y-112406333D03*
%TD*%
D12*
%TO.C,C1*%
X86040000Y-91451333D03*
X84140000Y-91451333D03*
%TD*%
D16*
%TO.C,U1*%
X73312500Y-98436333D03*
X73312500Y-99706333D03*
X73312500Y-100976333D03*
X73312500Y-102246333D03*
X80487500Y-102246333D03*
X80487500Y-100976333D03*
X80487500Y-99706333D03*
X80487500Y-98436333D03*
%TD*%
D17*
%TO.C,U4*%
X84730000Y-97901333D03*
X84730000Y-98701333D03*
X84730000Y-99501333D03*
X84730000Y-100301333D03*
X84730000Y-101101333D03*
X84730000Y-101901333D03*
X84730000Y-102701333D03*
X84730000Y-103501333D03*
D18*
X86100000Y-104871333D03*
X86900000Y-104871333D03*
X87700000Y-104871333D03*
X88500000Y-104871333D03*
X89300000Y-104871333D03*
X90100000Y-104871333D03*
X90900000Y-104871333D03*
X91700000Y-104871333D03*
D17*
X93070000Y-103501333D03*
X93070000Y-102701333D03*
X93070000Y-101901333D03*
X93070000Y-101101333D03*
X93070000Y-100301333D03*
X93070000Y-99501333D03*
X93070000Y-98701333D03*
X93070000Y-97901333D03*
D18*
X91700000Y-96531333D03*
X90900000Y-96531333D03*
X90100000Y-96531333D03*
X89300000Y-96531333D03*
X88500000Y-96531333D03*
X87700000Y-96531333D03*
X86900000Y-96531333D03*
X86100000Y-96531333D03*
%TD*%
D19*
%TO.C,Y2*%
X92135000Y-109231333D03*
X86935000Y-109231333D03*
%TD*%
D10*
%TO.C,R7*%
X99337500Y-95261333D03*
X97512500Y-95261333D03*
%TD*%
D11*
%TO.C,R4*%
X97512500Y-99071333D03*
X99337500Y-99071333D03*
%TD*%
D16*
%TO.C,U2*%
X73312500Y-91451333D03*
X73312500Y-92721333D03*
X73312500Y-93991333D03*
X73312500Y-95261333D03*
X80487500Y-95261333D03*
X80487500Y-93991333D03*
X80487500Y-92721333D03*
X80487500Y-91451333D03*
%TD*%
D20*
%TO.C,D2*%
X101932500Y-91451333D03*
X103807500Y-91451333D03*
%TD*%
D15*
%TO.C,C3*%
X88585000Y-91451333D03*
X90485000Y-91451333D03*
%TD*%
D20*
%TO.C,D1*%
X97790000Y-91451333D03*
X99665000Y-91451333D03*
%TD*%
M02*
